<svg width="16" height="17" viewBox="0 0 16 17" fill="none" xmlns="http://www.w3.org/2000/svg">
<path d="M0.8 13.5263C0.8 13.9747 0.968571 14.4048 1.26863 14.7219C1.56869 15.039 1.97565 15.2171 2.4 15.2171H7.8112C7.4169 14.7526 7.19918 14.1503 7.2 13.5263H0.8ZM9.6 15.2171C10.0243 15.2171 10.4313 15.039 10.7314 14.7219C11.0314 14.4048 11.2 13.9747 11.2 13.5263V2.53618C11.2 1.88692 11.4312 1.29345 11.8112 0.845395H4.8C4.37565 0.845395 3.96869 1.02353 3.66863 1.34062C3.36857 1.6577 3.2 2.08776 3.2 2.53618V12.6809H8V13.5263C8 13.9747 8.16857 14.4048 8.46863 14.7219C8.76869 15.039 9.17565 15.2171 9.6 15.2171ZM2.4 2.53618C2.4 1.86355 2.65286 1.21846 3.10294 0.742831C3.55303 0.267204 4.16348 0 4.8 0H13.6C14.2365 0 14.847 0.267204 15.2971 0.742831C15.7471 1.21846 16 1.86355 16 2.53618V4.22697H12V13.5263C12 14.199 11.7471 14.844 11.2971 15.3197C10.847 15.7953 10.2365 16.0625 9.6 16.0625H2.4C1.76348 16.0625 1.15303 15.7953 0.702944 15.3197C0.252856 14.844 0 14.199 0 13.5263V12.6809H2.4V2.53618ZM15.2 3.38158V2.53618C15.2 2.08776 15.0314 1.6577 14.7314 1.34062C14.4313 1.02353 14.0243 0.845395 13.6 0.845395C13.1757 0.845395 12.7687 1.02353 12.4686 1.34062C12.1686 1.6577 12 2.08776 12 2.53618V3.38158H15.2Z" fill="white"/>
</svg>
