<svg width="14" height="17" viewBox="0 0 14 17" fill="none" xmlns="http://www.w3.org/2000/svg">
<path d="M7 0L14 3.70673V5.35417H0V3.70673L7 0ZM10.1111 6.17788H13.2222V12.7676H10.1111V6.17788ZM0 16.0625V13.5913H14V16.0625H0ZM5.44444 6.17788H8.55556V12.7676H5.44444V6.17788ZM0.777778 6.17788H3.88889V12.7676H0.777778V6.17788ZM0.777778 14.4151V15.2388H13.2222V14.4151H0.777778ZM1.55556 7.0016V11.9439H3.11111V7.0016H1.55556ZM6.22222 7.0016V11.9439H7.77778V7.0016H6.22222ZM10.8889 7.0016V11.9439H12.4444V7.0016H10.8889ZM0.777778 4.53045H13.2222V4.20096L7 0.890439L0.777778 4.20179V4.53045Z" fill="white"/>
</svg>
