<svg width="16" height="17" viewBox="0 0 16 17" fill="none" xmlns="http://www.w3.org/2000/svg">
<path d="M2.52632 0H13.4737C14.1437 0 14.7863 0.29864 15.2601 0.830223C15.7338 1.36181 16 2.08279 16 2.83456V13.2279C16 13.9797 15.7338 14.7007 15.2601 15.2323C14.7863 15.7639 14.1437 16.0625 13.4737 16.0625H2.52632C1.8563 16.0625 1.21372 15.7639 0.739941 15.2323C0.266165 14.7007 0 13.9797 0 13.2279V2.83456C0 2.08279 0.266165 1.36181 0.739941 0.830223C1.21372 0.29864 1.8563 0 2.52632 0ZM2.52632 0.944853C2.07964 0.944853 1.65125 1.14395 1.3354 1.49833C1.01955 1.85272 0.842105 2.33338 0.842105 2.83456H15.1579C15.1579 2.33338 14.9805 1.85272 14.6646 1.49833C14.3488 1.14395 13.9204 0.944853 13.4737 0.944853H2.52632ZM0.842105 13.2279C0.842105 13.7291 1.01955 14.2098 1.3354 14.5642C1.65125 14.9186 2.07964 15.1176 2.52632 15.1176H13.4737C13.9204 15.1176 14.3488 14.9186 14.6646 14.5642C14.9805 14.2098 15.1579 13.7291 15.1579 13.2279V3.77941H0.842105V13.2279ZM12.6316 13.2279H8.42105V12.2831H12.6316V13.2279ZM3.36842 6.14154L3.96379 5.47353L7.50653 9.44853L3.96379 13.4235L3.36842 12.7555L6.31579 9.44853L3.36842 6.14154Z" fill="white"/>
</svg>
