<svg width="16" height="17" viewBox="0 0 16 17" fill="none" xmlns="http://www.w3.org/2000/svg">
<path d="M7.58539 5.14686L7.65217 4.84368C7.65217 4.65582 7.57888 4.47565 7.44842 4.34281C7.31796 4.20997 7.14102 4.13534 6.95652 4.13534H3.42678L4.06748 1.69862L4.07096 1.68587C4.10251 1.56591 4.10254 1.43961 4.07104 1.31964C4.03954 1.19966 3.97761 1.09023 3.89148 1.00231L1.10261 3.84137C0.973262 3.9729 0.870722 4.12916 0.800882 4.30117C0.731042 4.47318 0.69528 4.65755 0.695652 4.84368V7.67708C0.695652 8.05281 0.842236 8.41315 1.10316 8.67883C1.36408 8.94451 1.71796 9.09377 2.08696 9.09377H4.86956C5.13278 9.09383 5.39062 9.01785 5.61313 8.87466C5.83563 8.73147 6.01369 8.52695 6.12661 8.28484H6.12522L7.58609 5.14686H7.58539ZM4.86956 9.80212H2.08696C1.53346 9.80212 1.00264 9.57823 0.611255 9.17971C0.219875 8.78119 0 8.24067 0 7.67708L0 4.84368C0 4.25788 0.233043 3.72662 0.610087 3.34199L3.89148 0L4.3833 0.500802C4.5593 0.680012 4.68486 0.904015 4.7469 1.14946C4.80893 1.3949 4.80517 1.65279 4.736 1.89625L4.33391 3.42699H6.95652C7.19678 3.42696 7.43295 3.49029 7.64203 3.61081C7.85112 3.73132 8.02599 3.90491 8.14962 4.11468C8.27325 4.32445 8.34143 4.56324 8.34752 4.8078C8.3536 5.05237 8.29739 5.29437 8.18435 5.51024L6.79235 8.50584C6.6324 8.89039 6.36472 9.21842 6.02275 9.44896C5.68079 9.6795 5.27969 9.80234 4.86956 9.80212ZM8.41461 10.9156L8.34783 11.2188C8.34783 11.4067 8.42112 11.5869 8.55158 11.7197C8.68204 11.8525 8.85898 11.9272 9.04348 11.9272H12.5732L11.9318 14.3639L11.929 14.3766C11.8974 14.4967 11.8973 14.6231 11.9288 14.7432C11.9603 14.8634 12.0223 14.9729 12.1085 15.0609L14.8974 12.2204C15.1485 11.964 15.3043 11.6098 15.3043 11.2188V8.38542C15.3043 8.00969 15.1578 7.64935 14.8968 7.38367C14.6359 7.11799 14.282 6.96873 13.913 6.96873H11.1304C10.8672 6.96868 10.6094 7.04466 10.3869 7.18784C10.1644 7.33103 9.98631 7.53556 9.87339 7.77766H9.87478L8.41391 10.9156H8.41461ZM11.1304 6.26038H13.913C14.4665 6.26038 14.9974 6.48427 15.3887 6.88279C15.7801 7.28131 16 7.82183 16 8.38542V11.2188C16.0004 11.4977 15.9467 11.7739 15.842 12.0316C15.7373 12.2893 15.5837 12.5234 15.3899 12.7205L12.1085 16.0625L11.6167 15.5617C11.4407 15.3825 11.3151 15.1585 11.2531 14.913C11.1911 14.6676 11.1948 14.4097 11.264 14.1663L11.6661 12.6355H9.04348C8.80322 12.6355 8.56705 12.5722 8.35796 12.4517C8.14888 12.3312 7.97401 12.1576 7.85038 11.9478C7.72674 11.7381 7.65857 11.4993 7.65248 11.2547C7.64639 11.0101 7.70261 10.7681 7.81565 10.5523L9.20765 7.55737C9.36749 7.17269 9.63512 6.84451 9.9771 6.61384C10.3191 6.38316 10.7202 6.26022 11.1304 6.26038Z" fill="white"/>
</svg>
