<svg width="12" height="17" viewBox="0 0 12 17" fill="none" xmlns="http://www.w3.org/2000/svg">
<path d="M1 16.0625V11.3382H0V10.3934H1V7.55882H0V6.61397H1V0H8C9.06087 0 10.0783 0.398187 10.8284 1.10696C11.5786 1.81574 12 2.77705 12 3.77941C12 4.78177 11.5786 5.74308 10.8284 6.45186C10.0783 7.16064 9.06087 7.55882 8 7.55882H2V10.3934H8V11.3382H2V16.0625H1ZM2 6.61397H8C8.79565 6.61397 9.55871 6.31533 10.1213 5.78375C10.6839 5.25216 11 4.53118 11 3.77941C11 3.02764 10.6839 2.30666 10.1213 1.77508C9.55871 1.24349 8.79565 0.944853 8 0.944853H2V6.61397Z" fill="white"/>
</svg>
