<svg width="14" height="16" viewBox="0 0 14 16" fill="none" xmlns="http://www.w3.org/2000/svg">
<path d="M5.3514 7.95733C5.51002 7.82094 5.65507 7.65822 5.78307 7.47306C5.32475 6.55154 5.05895 5.4259 5.05895 4.2329C5.05895 3.4356 5.17665 2.68076 5.38283 1.99829C5.06185 1.71289 4.69509 1.53662 4.29827 1.53662C3.08303 1.53662 2.09942 3.06685 2.09942 4.95646C2.09942 6.27846 2.58286 7.4226 3.2887 7.99204L0.308166 9.84626C0.122481 9.96293 0 10.2433 0 10.5566V13.7008C0 14.1223 0.220192 14.4637 0.490948 14.4637H2.46089V11.1644C2.46089 10.3107 2.81415 9.53848 3.36198 9.19553L5.3514 7.95733Z" fill="white"/>
<path d="M13.6233 10.2871L11.057 8.65072L9.9718 7.9589C10.4458 7.55979 10.8307 6.944 11.0827 6.20195C11.2927 5.58339 11.4014 4.91195 11.4014 4.23266C11.4014 3.83241 11.3539 3.45271 11.2877 3.08579C10.9648 1.30898 9.92653 0 8.68037 0C7.45761 0 6.43506 1.2624 6.09239 2.98875C6.01329 3.38467 5.9588 3.79656 5.9588 4.23266C5.9588 4.99047 6.09119 5.69667 6.31617 6.31109C6.57633 7.02369 6.96188 7.61162 7.43113 7.98927L6.39167 8.63634L3.74253 10.2855C3.51226 10.4296 3.36108 10.7766 3.36108 11.1643V15.0557C3.36108 15.5771 3.63286 16 3.9687 16H13.3924C13.728 16 14 15.5771 14 15.0557V11.1643C14 10.7782 13.8512 10.4344 13.6233 10.2871Z" fill="white"/>
</svg>
