<svg width="16" height="17" viewBox="0 0 16 17" fill="none" xmlns="http://www.w3.org/2000/svg">
<path d="M3.2 0H12.8C13.6487 0 14.4626 0.267204 15.0627 0.742831C15.6629 1.21846 16 1.86355 16 2.53618V13.5263C16 14.199 15.6629 14.844 15.0627 15.3197C14.4626 15.7953 13.6487 16.0625 12.8 16.0625H3.2C2.35131 16.0625 1.53737 15.7953 0.937258 15.3197C0.337142 14.844 0 14.199 0 13.5263V2.53618C0 1.86355 0.337142 1.21846 0.937258 0.742831C1.53737 0.267204 2.35131 0 3.2 0ZM3.2 0.845395C2.6342 0.845395 2.09158 1.02353 1.69151 1.34062C1.29143 1.6577 1.06667 2.08776 1.06667 2.53618V13.5263C1.06667 13.9747 1.29143 14.4048 1.69151 14.7219C2.09158 15.039 2.6342 15.2171 3.2 15.2171H12.8C13.3658 15.2171 13.9084 15.039 14.3085 14.7219C14.7086 14.4048 14.9333 13.9747 14.9333 13.5263V2.53618C14.9333 2.08776 14.7086 1.6577 14.3085 1.34062C13.9084 1.02353 13.3658 0.845395 12.8 0.845395H3.2ZM3.2 1.69079H12.8C13.0829 1.69079 13.3542 1.77986 13.5542 1.9384C13.7543 2.09694 13.8667 2.31197 13.8667 2.53618V12.6809C13.8667 12.9051 13.7543 13.1202 13.5542 13.2787C13.3542 13.4372 13.0829 13.5263 12.8 13.5263H3.2C2.9171 13.5263 2.64579 13.4372 2.44575 13.2787C2.24571 13.1202 2.13333 12.9051 2.13333 12.6809V2.53618C2.13333 2.31197 2.24571 2.09694 2.44575 1.9384C2.64579 1.77986 2.9171 1.69079 3.2 1.69079ZM3.2 2.53618V12.6809H12.8V2.53618H3.2ZM5.33333 4.22697H10.6667V5.07237H5.33333V4.22697ZM5.33333 6.76316H10.6667V7.60855H5.33333V6.76316ZM5.33333 9.29934H8.53333V10.1447H5.33333V9.29934Z" fill="white"/>
</svg>
