<svg width="30" height="30" viewBox="0 0 30 30" fill="none" xmlns="http://www.w3.org/2000/svg">
<path d="M30 11.2715V25.3179C30 26.5596 29.5009 27.7506 28.6126 28.6286C27.7243 29.5067 26.5194 30 25.2632 30H4.73684C3.48055 30 2.27572 29.5067 1.38739 28.6286C0.499059 27.7506 0 26.5596 0 25.3179V11.2715C0 9.53907 0.952105 8.02518 2.36842 7.21673L2.36368 7.21049L14.9968 0L27.6395 7.21517L27.6379 7.21985C28.3564 7.63119 28.9529 8.22206 29.3675 8.93318C29.7821 9.64431 30.0002 10.4507 30 11.2715ZM2.71105 8.87733L15 16.7652L27.2889 8.87733L14.9968 1.80262L2.71105 8.87733ZM15 18.6255L1.79053 10.1477C1.65045 10.5062 1.57872 10.8872 1.57895 11.2715V25.3179C1.57895 26.1457 1.91165 26.9397 2.50387 27.525C3.09609 28.1104 3.89932 28.4393 4.73684 28.4393H25.2632C26.1007 28.4393 26.9039 28.1104 27.4961 27.525C28.0883 26.9397 28.4211 26.1457 28.4211 25.3179V11.2715C28.4211 10.875 28.3468 10.4958 28.2095 10.1477L15 18.624V18.6255Z" fill="black"/>
</svg>
