<svg width="21" height="16" viewBox="0 0 21 16" fill="none" xmlns="http://www.w3.org/2000/svg">
<g clip-path="url(#clip0)">
<path d="M18.5 14.5C19.098 14.5 19.5 14.098 19.5 13.5V0.25C19.5 0.183696 19.4737 0.120107 19.4268 0.0732233C19.3799 0.0263392 19.3163 0 19.25 0C19.1837 0 19.1201 0.0263392 19.0732 0.0732233C19.0263 0.120107 19 0.183696 19 0.25V13.5C19 13.935 18.6865 14 18.5 14C18.4485 14 18 13.986 18 13.5V0.25C18 0.183696 17.9737 0.120107 17.9268 0.0732233C17.8799 0.0263392 17.8163 0 17.75 0C17.6837 0 17.6201 0.0263392 17.5732 0.0732233C17.5263 0.120107 17.5 0.183696 17.5 0.25V13.5C17.5 14.1565 18.003 14.5 18.5 14.5Z" fill="white"/>
<path d="M2.25 10.5H7.25C7.3163 10.5 7.37989 10.4737 7.42678 10.4268C7.47366 10.3799 7.5 10.3163 7.5 10.25V5.75C7.5 5.6837 7.47366 5.62011 7.42678 5.57322C7.37989 5.52634 7.3163 5.5 7.25 5.5H2.25C2.1837 5.5 2.12011 5.52634 2.07322 5.57322C2.02634 5.62011 2 5.6837 2 5.75V10.25C2 10.3163 2.02634 10.3799 2.07322 10.4268C2.12011 10.4737 2.1837 10.5 2.25 10.5ZM2.5 6H7V10H2.5V6Z" fill="white"/>
<path d="M2.25 4H14.25C14.3163 4 14.3799 3.97366 14.4268 3.92678C14.4737 3.87989 14.5 3.8163 14.5 3.75V1.75C14.5 1.6837 14.4737 1.62011 14.4268 1.57322C14.3799 1.52634 14.3163 1.5 14.25 1.5H2.25C2.1837 1.5 2.12011 1.52634 2.07322 1.57322C2.02634 1.62011 2 1.6837 2 1.75V3.75C2 3.8163 2.02634 3.87989 2.07322 3.92678C2.12011 3.97366 2.1837 4 2.25 4ZM2.5 2H14V3.5H2.5V2Z" fill="white"/>
<path d="M14.25 5.5H9.25C9.1837 5.5 9.12011 5.52634 9.07322 5.57322C9.02634 5.62011 9 5.6837 9 5.75C9 5.8163 9.02634 5.87989 9.07322 5.92678C9.12011 5.97366 9.1837 6 9.25 6H14.25C14.3163 6 14.3799 5.97366 14.4268 5.92678C14.4737 5.87989 14.5 5.8163 14.5 5.75C14.5 5.6837 14.4737 5.62011 14.4268 5.57322C14.3799 5.52634 14.3163 5.5 14.25 5.5Z" fill="white"/>
<path d="M14.25 7H9.25C9.1837 7 9.12011 7.02634 9.07322 7.07322C9.02634 7.12011 9 7.1837 9 7.25C9 7.3163 9.02634 7.37989 9.07322 7.42678C9.12011 7.47366 9.1837 7.5 9.25 7.5H14.25C14.3163 7.5 14.3799 7.47366 14.4268 7.42678C14.4737 7.37989 14.5 7.3163 14.5 7.25C14.5 7.1837 14.4737 7.12011 14.4268 7.07322C14.3799 7.02634 14.3163 7 14.25 7Z" fill="white"/>
<path d="M14.25 8.5H9.25C9.1837 8.5 9.12011 8.52634 9.07322 8.57322C9.02634 8.62011 9 8.6837 9 8.75C9 8.8163 9.02634 8.87989 9.07322 8.92678C9.12011 8.97366 9.1837 9 9.25 9H14.25C14.3163 9 14.3799 8.97366 14.4268 8.92678C14.4737 8.87989 14.5 8.8163 14.5 8.75C14.5 8.6837 14.4737 8.62011 14.4268 8.57322C14.3799 8.52634 14.3163 8.5 14.25 8.5Z" fill="white"/>
<path d="M14.25 10H9.25C9.1837 10 9.12011 10.0263 9.07322 10.0732C9.02634 10.1201 9 10.1837 9 10.25C9 10.3163 9.02634 10.3799 9.07322 10.4268C9.12011 10.4737 9.1837 10.5 9.25 10.5H14.25C14.3163 10.5 14.3799 10.4737 14.4268 10.4268C14.4737 10.3799 14.5 10.3163 14.5 10.25C14.5 10.1837 14.4737 10.1201 14.4268 10.0732C14.3799 10.0263 14.3163 10 14.25 10Z" fill="white"/>
<path d="M14.25 11.5H9.25C9.1837 11.5 9.12011 11.5263 9.07322 11.5732C9.02634 11.6201 9 11.6837 9 11.75C9 11.8163 9.02634 11.8799 9.07322 11.9268C9.12011 11.9737 9.1837 12 9.25 12H14.25C14.3163 12 14.3799 11.9737 14.4268 11.9268C14.4737 11.8799 14.5 11.8163 14.5 11.75C14.5 11.6837 14.4737 11.6201 14.4268 11.5732C14.3799 11.5263 14.3163 11.5 14.25 11.5Z" fill="white"/>
<path d="M2.25 12H7.25C7.3163 12 7.37989 11.9737 7.42678 11.9268C7.47366 11.8799 7.5 11.8163 7.5 11.75C7.5 11.6837 7.47366 11.6201 7.42678 11.5732C7.37989 11.5263 7.3163 11.5 7.25 11.5H2.25C2.1837 11.5 2.12011 11.5263 2.07322 11.5732C2.02634 11.6201 2 11.6837 2 11.75C2 11.8163 2.02634 11.8799 2.07322 11.9268C2.12011 11.9737 2.1837 12 2.25 12Z" fill="white"/>
<path d="M14.25 13H9.25C9.1837 13 9.12011 13.0263 9.07322 13.0732C9.02634 13.1201 9 13.1837 9 13.25C9 13.3163 9.02634 13.3799 9.07322 13.4268C9.12011 13.4737 9.1837 13.5 9.25 13.5H14.25C14.3163 13.5 14.3799 13.4737 14.4268 13.4268C14.4737 13.3799 14.5 13.3163 14.5 13.25C14.5 13.1837 14.4737 13.1201 14.4268 13.0732C14.3799 13.0263 14.3163 13 14.25 13Z" fill="white"/>
<path d="M2.25 13.5H7.25C7.3163 13.5 7.37989 13.4737 7.42678 13.4268C7.47366 13.3799 7.5 13.3163 7.5 13.25C7.5 13.1837 7.47366 13.1201 7.42678 13.0732C7.37989 13.0263 7.3163 13 7.25 13H2.25C2.1837 13 2.12011 13.0263 2.07322 13.0732C2.02634 13.1201 2 13.1837 2 13.25C2 13.3163 2.02634 13.3799 2.07322 13.4268C2.12011 13.4737 2.1837 13.5 2.25 13.5Z" fill="white"/>
<path d="M2.49999 15.9735H18.51C18.5135 15.9735 18.5165 15.9715 18.52 15.9715C19.1721 15.9658 19.7956 15.7031 20.2551 15.2403C20.7146 14.7775 20.973 14.1521 20.974 13.5V0.249997C20.974 0.190721 20.9504 0.133873 20.9085 0.0919585C20.8666 0.0500441 20.8098 0.0264969 20.7505 0.0264969C20.6912 0.0264969 20.6344 0.0500441 20.5925 0.0919585C20.5505 0.133873 20.527 0.190721 20.527 0.249997V13.5C20.527 14.6175 19.618 15.5265 18.5005 15.5265C17.383 15.5265 16.4735 14.6175 16.4735 13.5V0.249997C16.4735 0.126497 16.3735 0.0264969 16.25 0.0264969H0.249989C0.126489 0.0264969 0.0264893 0.126497 0.0264893 0.249997V13.5C0.0271511 14.1558 0.287964 14.7846 0.751692 15.2483C1.21542 15.712 1.84418 15.9728 2.49999 15.9735ZM0.473489 0.473497H16.026V13.5C16.026 13.653 16.0445 13.8015 16.071 13.9475C16.0765 13.9765 16.081 14.0055 16.0875 14.034C16.1185 14.173 16.1595 14.3075 16.213 14.437C16.2225 14.4605 16.234 14.4825 16.2445 14.5055C16.2985 14.6265 16.361 14.743 16.4335 14.853C16.442 14.8655 16.4485 14.879 16.457 14.8915C16.536 15.0065 16.626 15.113 16.7225 15.213C16.7435 15.2345 16.764 15.2555 16.786 15.2765C16.879 15.3665 16.977 15.452 17.083 15.5265H2.49999C1.96273 15.5258 1.44767 15.3121 1.06777 14.9322C0.687869 14.5523 0.474151 14.0373 0.473489 13.5V0.473497Z" fill="white"/>
</g>
<defs>
<clipPath id="clip0">
<rect width="21" height="16" fill="white"/>
</clipPath>
</defs>
</svg>
