<svg width="30" height="30" viewBox="0 0 30 30" fill="none" xmlns="http://www.w3.org/2000/svg">
<path d="M4.69631 0H14.0889C15.3345 0 16.529 0.499059 17.4097 1.38739C18.2904 2.27572 18.7852 3.48055 18.7852 4.73684V11.0526H17.2198V4.73684C17.2198 3.89932 16.8899 3.09609 16.3028 2.50387C15.7156 1.91165 14.9193 1.57895 14.0889 1.57895H4.69631C3.86595 1.57895 3.0696 1.91165 2.48245 2.50387C1.89529 3.09609 1.56544 3.89932 1.56544 4.73684V25.2632C1.56544 26.1007 1.89529 26.9039 2.48245 27.4961C3.0696 28.0883 3.86595 28.4211 4.69631 28.4211H14.0889C14.9193 28.4211 15.7156 28.0883 16.3028 27.4961C16.8899 26.9039 17.2198 26.1007 17.2198 25.2632V18.9474H18.7852V25.2632C18.7852 26.5194 18.2904 27.7243 17.4097 28.6126C16.529 29.5009 15.3345 30 14.0889 30H4.69631C3.45077 30 2.25624 29.5009 1.37552 28.6126C0.494788 27.7243 0 26.5194 0 25.2632V4.73684C0 3.48055 0.494788 2.27572 1.37552 1.38739C2.25624 0.499059 3.45077 0 4.69631 0ZM9.39261 14.2105H27.0038L21.9161 9.07895L22.9555 7.89474L30 15L22.9555 22.1053L21.9161 20.9211L27.0038 15.7895H9.39261V14.2105Z" fill="black"/>
</svg>
