<svg width="18" height="17" viewBox="0 0 18 17" fill="none" xmlns="http://www.w3.org/2000/svg">
<path d="M2.84211 0H6.63158L9.47368 3.2125H15.1579C15.9117 3.2125 16.6346 3.55096 17.1676 4.15342C17.7006 4.75588 18 5.57299 18 6.425V12.85C18 13.702 17.7006 14.5191 17.1676 15.1216C16.6346 15.724 15.9117 16.0625 15.1579 16.0625H2.84211C2.08833 16.0625 1.36543 15.724 0.832433 15.1216C0.299435 14.5191 0 13.702 0 12.85V3.2125C0 2.36049 0.299435 1.54338 0.832433 0.94092C1.36543 0.338459 2.08833 0 2.84211 0ZM2.84211 1.07083C2.33959 1.07083 1.85766 1.29647 1.50232 1.69811C1.14699 2.09975 0.947368 2.64449 0.947368 3.2125V12.85C0.947368 13.418 1.14699 13.9627 1.50232 14.3644C1.85766 14.766 2.33959 14.9917 2.84211 14.9917H15.1579C15.6604 14.9917 16.1423 14.766 16.4977 14.3644C16.853 13.9627 17.0526 13.418 17.0526 12.85V6.425C17.0526 5.85699 16.853 5.31225 16.4977 4.91061C16.1423 4.50897 15.6604 4.28333 15.1579 4.28333H9.08147L6.23937 1.07083H2.84211Z" fill="white"/>
</svg>
