<svg width="14" height="16" viewBox="0 0 14 16" fill="none" xmlns="http://www.w3.org/2000/svg">
<path d="M2.47059 2.4H4.52941C4.52941 1.76348 4.7897 1.15303 5.25303 0.702944C5.71636 0.252856 6.34476 0 7 0C7.65524 0 8.28364 0.252856 8.74697 0.702944C9.2103 1.15303 9.47059 1.76348 9.47059 2.4H11.5294C12.1847 2.4 12.8131 2.65286 13.2764 3.10294C13.7397 3.55303 14 4.16348 14 4.8V13.6C14 14.2365 13.7397 14.847 13.2764 15.2971C12.8131 15.7471 12.1847 16 11.5294 16H2.47059C1.81535 16 1.18694 15.7471 0.723619 15.2971C0.260293 14.847 0 14.2365 0 13.6V4.8C0 4.16348 0.260293 3.55303 0.723619 3.10294C1.18694 2.65286 1.81535 2.4 2.47059 2.4ZM2.47059 3.2C2.03376 3.2 1.61483 3.36857 1.30594 3.66863C0.997058 3.96869 0.823529 4.37565 0.823529 4.8V13.6C0.823529 14.0243 0.997058 14.4313 1.30594 14.7314C1.61483 15.0314 2.03376 15.2 2.47059 15.2H11.5294C11.9662 15.2 12.3852 15.0314 12.6941 14.7314C13.0029 14.4313 13.1765 14.0243 13.1765 13.6V4.8C13.1765 4.37565 13.0029 3.96869 12.6941 3.66863C12.3852 3.36857 11.9662 3.2 11.5294 3.2H10.7059V5.6H3.29412V3.2H2.47059ZM4.11765 4.8H9.88235V3.2H4.11765V4.8ZM7 0.8C6.56317 0.8 6.14424 0.968571 5.83535 1.26863C5.52647 1.56869 5.35294 1.97565 5.35294 2.4H8.64706C8.64706 1.97565 8.47353 1.56869 8.16465 1.26863C7.85576 0.968571 7.43683 0.8 7 0.8ZM11.6529 7.68L5.76471 13.4L3.12941 10.84L3.71165 10.2744L5.76471 12.2688L11.0699 7.1144L11.6521 7.68H11.6529Z" fill="white"/>
</svg>
