<svg width="14" height="16" viewBox="0 0 14 16" fill="none" xmlns="http://www.w3.org/2000/svg">
<path d="M3 0H11C11.7956 0 12.5587 0.280952 13.1213 0.781049C13.6839 1.28115 14 1.95942 14 2.66667V16L7 13.3333L0 16V2.66667C0 1.95942 0.316071 1.28115 0.87868 0.781049C1.44129 0.280952 2.20435 0 3 0ZM3 0.888889C2.46957 0.888889 1.96086 1.07619 1.58579 1.40959C1.21071 1.74299 1 2.19517 1 2.66667V14.6578L7 12.3929L13 14.6569V2.66667C13 2.19517 12.7893 1.74299 12.4142 1.40959C12.0391 1.07619 11.5304 0.888889 11 0.888889H3Z" fill="white"/>
</svg>
