<svg width="14" height="16" viewBox="0 0 14 16" fill="none" xmlns="http://www.w3.org/2000/svg">
<path d="M2.47059 0H11.5294C12.1847 0 12.8131 0.337142 13.2764 0.937258C13.7397 1.53737 14 2.35131 14 3.2V12.8C14 13.6487 13.7397 14.4626 13.2764 15.0627C12.8131 15.6629 12.1847 16 11.5294 16H2.47059C1.81535 16 1.18694 15.6629 0.723619 15.0627C0.260293 14.4626 0 13.6487 0 12.8V3.2C0 2.35131 0.260293 1.53737 0.723619 0.937258C1.18694 0.337142 1.81535 0 2.47059 0ZM0.823529 12.8C0.823529 13.3658 0.997058 13.9084 1.30594 14.3085C1.61483 14.7086 2.03376 14.9333 2.47059 14.9333H6.58824V11.7333H0.823529V12.8ZM6.58824 7.46667H0.823529V10.6667H6.58824V7.46667ZM11.5294 14.9333C11.9662 14.9333 12.3852 14.7086 12.6941 14.3085C13.0029 13.9084 13.1765 13.3658 13.1765 12.8V11.7333H7.41176V14.9333H11.5294ZM13.1765 7.46667H7.41176V10.6667H13.1765V7.46667ZM0.823529 6.4H6.58824V3.2H0.823529V6.4ZM7.41176 6.4H13.1765V3.2H7.41176V6.4Z" fill="white"/>
</svg>
