<svg width="17" height="18" viewBox="0 0 17 18" fill="none" xmlns="http://www.w3.org/2000/svg">
<path d="M6.31429 0.175781C7.98894 0.175781 9.595 0.843633 10.7792 2.03242C11.9633 3.2212 12.6286 4.83354 12.6286 6.51473C12.6286 8.08484 12.0554 9.52817 11.1131 10.6399L11.3754 10.9032H12.1429L17 15.7794L15.5429 17.2422L10.6857 12.3661V11.5956L10.4234 11.3323C9.27768 12.3142 7.82069 12.8536 6.31429 12.8537C4.63963 12.8537 3.03357 12.1858 1.84941 10.997C0.665253 9.80826 0 8.19593 0 6.51473C0 4.83354 0.665253 3.2212 1.84941 2.03242C3.03357 0.843633 4.63963 0.175781 6.31429 0.175781V0.175781ZM6.31429 2.12623C3.88571 2.12623 1.94286 4.07667 1.94286 6.51473C1.94286 8.95279 3.88571 10.9032 6.31429 10.9032C8.74286 10.9032 10.6857 8.95279 10.6857 6.51473C10.6857 4.07667 8.74286 2.12623 6.31429 2.12623Z" fill="white"/>
</svg>
