<svg width="30" height="30" viewBox="0 0 30 30" fill="none" xmlns="http://www.w3.org/2000/svg">
<path d="M28.03 19.7323L25.1076 17.6971C25.5984 15.9297 25.5956 14.0657 25.0995 12.2998L28.0317 10.2898L25.6908 6.32343L22.4299 7.78438C21.1119 6.48439 19.4617 5.55484 17.6515 5.09282L17.3406 1.60137H12.6588L12.3478 5.09282C10.538 5.55547 8.88829 6.48558 7.57099 7.78596L4.30856 6.32501L1.96927 10.2913L4.90143 12.3013C4.40509 14.0667 4.40175 15.9301 4.89177 17.6971L1.96927 19.7323L4.30856 23.6797L7.57099 22.2172C8.88848 23.517 10.5382 24.4466 12.3478 24.9088L12.6588 28.4002H17.3406L17.6515 24.9088C19.4611 24.4465 21.1108 23.5169 22.4283 22.2172L25.6908 23.6797L28.0317 19.7339L28.03 19.7323ZM18.2299 4.42519e-07C18.4372 -0.000214523 18.6367 0.077897 18.7868 0.218076C18.9368 0.358255 19.0259 0.549701 19.0354 0.752564L19.3222 3.96319C20.5131 4.40764 21.6242 5.03501 22.6136 5.82172L25.5941 4.46016C25.7782 4.36741 25.9917 4.34762 26.1903 4.40491C26.3888 4.46219 26.5573 4.59215 26.6606 4.76782L29.8908 10.2424C29.9946 10.4179 30.0254 10.6258 29.9768 10.8229C29.9282 11.0201 29.804 11.1913 29.6298 11.3011L26.9329 13.1501C27.1391 14.4091 27.1327 15.6634 26.9345 16.8719L29.6298 18.7179C29.8044 18.8277 29.9289 18.9992 29.9776 19.1967C30.0262 19.3942 29.9951 19.6024 29.8908 19.7781L26.6606 25.2322C26.5573 25.4079 26.3888 25.5378 26.1903 25.5951C25.9917 25.6524 25.7782 25.6326 25.5941 25.5398L22.6136 24.1783C21.6437 24.9514 20.5385 25.5824 19.3222 26.0384L19.0354 29.249C19.0255 29.4516 18.9362 29.6427 18.7862 29.7825C18.6362 29.9223 18.437 30.0002 18.2299 30H11.7695C11.5623 30.0002 11.3631 29.9223 11.2131 29.7825C11.0631 29.6427 10.9739 29.4516 10.9639 29.249L10.6771 26.0384C9.48613 25.5934 8.37507 24.9655 7.38571 24.1783L4.40522 25.5398C4.22116 25.6332 4.00744 25.6535 3.8085 25.5965C3.60955 25.5395 3.44071 25.4096 3.33708 25.2338L0.108479 19.7765C0.00469065 19.601 -0.0260998 19.3931 0.0225001 19.196C0.0711 18.9989 0.195357 18.8276 0.369474 18.7179L3.0648 16.8704C2.86296 15.6376 2.86296 14.3813 3.0648 13.1486L0.371085 11.3011C0.197395 11.1913 0.0734345 11.0204 0.0248539 10.8236C-0.0237266 10.6269 0.00679018 10.4194 0.11009 10.244L3.33547 4.76782C3.43883 4.59174 3.60756 4.46149 3.80653 4.40419C4.00549 4.34688 4.21936 4.36693 4.40361 4.46016L7.3841 5.82172C8.37352 5.03501 9.48458 4.40764 10.6755 3.96319L10.9623 0.752564C10.9718 0.549701 11.0609 0.358255 11.2109 0.218076C11.361 0.077897 11.5605 -0.000214523 11.7678 4.42519e-07H18.2283H18.2299ZM14.9997 9.48988C16.4952 9.48988 17.9294 10.0717 18.9869 11.1072C20.0443 12.1428 20.6384 13.5473 20.6384 15.0118C20.6384 16.4763 20.0443 17.8809 18.9869 18.9164C17.9294 19.952 16.4952 20.5338 14.9997 20.5338C13.5042 20.5338 12.0699 19.952 11.0124 18.9164C9.95498 17.8809 9.36089 16.4763 9.36089 15.0118C9.36089 13.5473 9.95498 12.1428 11.0124 11.1072C12.0699 10.0717 13.5042 9.48988 14.9997 9.48988ZM14.9997 11.0676C13.9314 11.0676 12.907 11.4831 12.1517 12.2228C11.3963 12.9625 10.972 13.9658 10.972 15.0118C10.972 16.0579 11.3963 17.0611 12.1517 17.8008C12.907 18.5405 13.9314 18.9561 14.9997 18.9561C16.0679 18.9561 17.0923 18.5405 17.8477 17.8008C18.603 17.0611 19.0273 16.0579 19.0273 15.0118C19.0273 13.9658 18.603 12.9625 17.8477 12.2228C17.0923 11.4831 16.0679 11.0676 14.9997 11.0676V11.0676Z" fill="black"/>
</svg>
