<svg width="14" height="16" viewBox="0 0 14 16" fill="none" xmlns="http://www.w3.org/2000/svg">
<path d="M2.21053 0H11.7895C12.3757 0 12.938 0.337142 13.3526 0.937258C13.7671 1.53737 14 2.35131 14 3.2V12.8C14 13.6487 13.7671 14.4626 13.3526 15.0627C12.938 15.6629 12.3757 16 11.7895 16H2.21053C1.62426 16 1.062 15.6629 0.647448 15.0627C0.232894 14.4626 0 13.6487 0 12.8V3.2C0 2.35131 0.232894 1.53737 0.647448 0.937258C1.062 0.337142 1.62426 0 2.21053 0ZM2.21053 1.06667C1.81968 1.06667 1.44484 1.29143 1.16847 1.69151C0.892105 2.09158 0.736842 2.6342 0.736842 3.2V4.26667H13.2632V3.2C13.2632 2.6342 13.1079 2.09158 12.8315 1.69151C12.5552 1.29143 12.1803 1.06667 11.7895 1.06667H2.21053ZM0.736842 12.8C0.736842 13.3658 0.892105 13.9084 1.16847 14.3085C1.44484 14.7086 1.81968 14.9333 2.21053 14.9333H11.7895C12.1803 14.9333 12.5552 14.7086 12.8315 14.3085C13.1079 13.9084 13.2632 13.3658 13.2632 12.8V7.46667H0.736842V12.8ZM2.21053 11.7333H5.15789V12.8H2.21053V11.7333ZM6.63158 11.7333H8.8421V12.8H6.63158V11.7333ZM0.736842 5.33333V6.4H13.2632V5.33333H0.736842Z" fill="white"/>
</svg>
