<svg width="16" height="17" viewBox="0 0 16 17" fill="none" xmlns="http://www.w3.org/2000/svg">
<path d="M8 9.6375C12.4181 9.6375 16 11.3155 16 13.3854V16.0625H0V13.3854C0 11.3155 3.58187 9.6375 8 9.6375ZM14.9333 13.3854C14.9333 11.9077 11.8293 10.7083 8 10.7083C4.17067 10.7083 1.06667 11.9077 1.06667 13.3854V14.9917H14.9333V13.3854ZM8 0C8.99014 0 9.93973 0.394869 10.6399 1.09774C11.34 1.80061 11.7333 2.75391 11.7333 3.74792C11.7333 4.74193 11.34 5.69522 10.6399 6.39809C9.93973 7.10096 8.99014 7.49583 8 7.49583C7.00986 7.49583 6.06027 7.10096 5.36014 6.39809C4.66 5.69522 4.26667 4.74193 4.26667 3.74792C4.26667 2.75391 4.66 1.80061 5.36014 1.09774C6.06027 0.394869 7.00986 0 8 0ZM8 1.07083C7.29276 1.07083 6.61448 1.35288 6.11438 1.85493C5.61429 2.35698 5.33333 3.03791 5.33333 3.74792C5.33333 4.45792 5.61429 5.13885 6.11438 5.6409C6.61448 6.14295 7.29276 6.425 8 6.425C8.70724 6.425 9.38552 6.14295 9.88562 5.6409C10.3857 5.13885 10.6667 4.45792 10.6667 3.74792C10.6667 3.03791 10.3857 2.35698 9.88562 1.85493C9.38552 1.35288 8.70724 1.07083 8 1.07083Z" fill="white"/>
</svg>
